<?xml version="1.0" encoding="iso-8859-1"?>
<!-- Generator: Adobe Illustrator 18.0.0, SVG Export Plug-In . SVG Version: 6.00 Build 0)  -->
<!DOCTYPE svg PUBLIC "-//W3C//DTD SVG 1.1//EN" "http://www.w3.org/Graphics/SVG/1.1/DTD/svg11.dtd">
<svg version="1.1" id="Capa_1" xmlns="http://www.w3.org/2000/svg" xmlns:xlink="http://www.w3.org/1999/xlink" x="0px" y="0px"
	 viewBox="0 0 488.998 488.998" style="enable-background:new 0 0 488.998 488.998;" xml:space="preserve">
<g>
	<path d="M453.409,235.668c10.063,0,18.25-8.186,18.25-18.25c0-10.063-8.187-18.25-18.25-18.25c-10.064,0-18.25,8.187-18.25,18.25
		C435.159,227.481,443.346,235.668,453.409,235.668z M453.409,207.668c5.376,0,9.75,4.374,9.75,9.75c0,5.376-4.374,9.75-9.75,9.75
		c-5.376,0-9.75-4.374-9.75-9.75C443.659,212.042,448.033,207.668,453.409,207.668z"/>
	<path d="M429.659,217.418c0-10.063-8.187-18.25-18.25-18.25c-10.064,0-18.25,8.187-18.25,18.25c0,10.064,8.186,18.25,18.25,18.25
		C421.473,235.668,429.659,227.481,429.659,217.418z M401.659,217.418c0-5.376,4.374-9.75,9.75-9.75c5.376,0,9.75,4.374,9.75,9.75
		c0,5.376-4.374,9.75-9.75,9.75C406.033,227.168,401.659,222.794,401.659,217.418z"/>
	<path d="M380.199,160.304H31.393c-2.348,0-4.25,1.902-4.25,4.25v259.369c0,2.348,1.902,4.25,4.25,4.25h348.807
		c2.348,0,4.25-1.902,4.25-4.25V164.554C384.449,162.206,382.547,160.304,380.199,160.304z M35.643,419.673v-55.531h47.868
		c2.348,0,4.25-1.902,4.25-4.25c0-2.348-1.902-4.25-4.25-4.25H35.643V168.804h340.307v214.838h-157.37
		c-2.348,0-4.25,1.902-4.25,4.25c0,2.348,1.902,4.25,4.25,4.25h157.37v27.531H35.643z"/>
	<path d="M455.438,260.334h-47.998c-2.348,0-4.25,1.902-4.25,4.25c0,2.348,1.902,4.25,4.25,4.25h47.998
		c2.348,0,4.25-1.902,4.25-4.25C459.688,262.236,457.785,260.334,455.438,260.334z"/>
	<path d="M455.438,288.832h-47.998c-2.348,0-4.25,1.902-4.25,4.25c0,2.348,1.902,4.25,4.25,4.25h47.998
		c2.348,0,4.25-1.902,4.25-4.25C459.688,290.734,457.785,288.832,455.438,288.832z"/>
	<path d="M455.438,317.331h-47.998c-2.348,0-4.25,1.902-4.25,4.25c0,2.348,1.902,4.25,4.25,4.25h47.998
		c2.348,0,4.25-1.902,4.25-4.25C459.688,319.233,457.785,317.331,455.438,317.331z"/>
	<path d="M459.688,350.079c0-2.348-1.902-4.25-4.25-4.25h-47.998c-2.348,0-4.25,1.902-4.25,4.25c0,2.348,1.902,4.25,4.25,4.25
		h47.998C457.785,354.329,459.688,352.427,459.688,350.079z"/>
	<path d="M455.859,131.625H167.186l92.229-92.229c1.66-1.659,1.66-4.351,0-6.01c-1.658-1.66-4.352-1.66-6.01,0l-94.495,94.495
		L64.915,33.887c-1.658-1.66-4.352-1.66-6.01,0c-1.66,1.659-1.66,4.351,0,6.01l91.729,91.729H33.137
		C14.865,131.625,0,146.49,0,164.763v258.956c0,18.272,14.866,33.138,33.139,33.138h422.721c18.272,0,33.139-14.865,33.139-33.138
		V164.763C488.998,146.49,474.132,131.625,455.859,131.625z M455.859,448.356H33.139c-13.586,0-24.639-11.053-24.639-24.638V164.763
		c0-13.585,11.052-24.638,24.637-24.638h422.723c13.586,0,24.639,11.053,24.639,24.638v234.879h-25.914
		c-2.348,0-4.25,1.902-4.25,4.25c0,2.348,1.902,4.25,4.25,4.25h25.914v15.577C480.498,437.304,469.445,448.356,455.859,448.356z"/>
	<path d="M68.834,230.646c1.088,0,2.176-0.415,3.005-1.245l32.855-32.855c1.66-1.659,1.66-4.351,0-6.01
		c-1.658-1.66-4.352-1.66-6.01,0l-32.855,32.855c-1.66,1.659-1.66,4.351,0,6.01C66.658,230.23,67.746,230.646,68.834,230.646z"/>
	<path d="M68.834,274.2c1.088,0,2.176-0.415,3.005-1.245l76.41-76.41c1.66-1.659,1.66-4.351,0-6.01c-1.658-1.66-4.352-1.66-6.01,0
		l-76.41,76.41c-1.66,1.659-1.66,4.351,0,6.01C66.658,273.785,67.746,274.2,68.834,274.2z"/>
	<path d="M185.792,190.535L65.829,310.499c-1.66,1.659-1.66,4.351,0,6.01c0.829,0.83,1.917,1.245,3.005,1.245
		s2.176-0.415,3.005-1.245l119.963-119.964c1.66-1.659,1.66-4.351,0-6.01C190.143,188.875,187.45,188.875,185.792,190.535z"/>
</g>
<g>
</g>
<g>
</g>
<g>
</g>
<g>
</g>
<g>
</g>
<g>
</g>
<g>
</g>
<g>
</g>
<g>
</g>
<g>
</g>
<g>
</g>
<g>
</g>
<g>
</g>
<g>
</g>
<g>
</g>
</svg>
